<svg id="Capa_1" enable-background="new 0 0 512 512" height="512" viewBox="0 0 512 512" width="512" xmlns="http://www.w3.org/2000/svg"><g><g><path d="m476 235c0-40.766-22.493-73.974-53.561-82.732-8.972-2.529-14.743-11.153-14.207-20.459.178-3.084.268-6.189.268-9.309 0-27.178-6.705-53.321-18.881-73.613-15.781-26.302-39.881-41.387-66.119-41.387-19.743 0-38.321 8.705-52.907 23.959-7.975 8.34-21.193 8.345-29.153-.009-14.602-15.323-33.139-23.95-52.94-23.95-26.238 0-50.338 15.085-66.119 41.387-12.176 20.292-18.881 46.435-18.881 73.613 0 3.12.09 6.225.268 9.309.536 9.307-5.235 17.93-14.207 20.459-31.068 8.758-53.561 41.966-53.561 82.732 0 30.54 12.628 56.829 32.025 71.781 7.203 5.552 9.799 15.287 6.189 23.634-5.329 12.322-8.214 25.765-8.214 39.585 0 40.243 23.896 75.008 58.243 90.856 7.132 3.291 11.757 10.361 11.757 18.216v5.428c0 11.046 8.954 20 20 20h200c11.046 0 20-8.954 20-20v-5.428c0-7.855 4.625-14.925 11.757-18.216 34.347-15.848 58.243-50.613 58.243-90.856 0-13.82-2.885-27.263-8.214-39.584-3.61-8.347-1.014-18.082 6.189-23.634 19.397-14.953 32.025-41.242 32.025-71.782z" fill="#ba8b68"/></g><g><path d="m375.755 317.886c-16.803-9.614-29.286-25.088-36.827-42.918-13.663-32.302-45.649-54.968-82.928-54.968s-69.265 22.666-82.927 54.968c-7.541 17.83-20.024 33.304-36.827 42.918-18.07 10.339-30.246 29.804-30.246 52.114 0 33.137 26.863 60 60 60h180c33.137 0 60-26.863 60-60 0-22.31-12.176-41.775-30.245-52.114z" fill="#ddaf89"/></g><g><path d="m334.994 377.505c-43.494 0-78.752-35.259-78.752-78.753 0-29.673 16.418-55.502 40.659-68.928-12.274-6.273-26.171-9.824-40.901-9.824-37.279 0-69.265 22.666-82.927 54.968-7.541 17.83-20.025 33.304-36.827 42.918-18.07 10.339-30.246 29.804-30.246 52.114 0 33.137 26.863 60 60 60h180c30.593 0 55.82-22.903 59.516-52.495z" fill="#c9a07d"/></g><g><ellipse cx="188.5" cy="122.5" fill="#ddaf89" rx="45" ry="75"/></g><g><path d="m188.5 122.5c0-27.756 9.053-51.972 22.5-64.941-6.62-6.386-14.301-10.059-22.5-10.059-24.853 0-45 33.579-45 75s20.147 75 45 75c8.199 0 15.88-3.673 22.5-10.059-13.447-12.969-22.5-37.185-22.5-64.941z" fill="#c9a07d"/></g><g><ellipse cx="323.5" cy="122.5" fill="#ddaf89" rx="45" ry="75"/></g><g><path d="m323.5 122.5c0-27.756 9.053-51.972 22.5-64.941-6.62-6.386-14.301-10.059-22.5-10.059-24.853 0-45 33.579-45 75s20.147 75 45 75c8.199 0 15.88-3.673 22.5-10.059-13.447-12.969-22.5-37.185-22.5-64.941z" fill="#c9a07d"/></g><g><ellipse cx="406" cy="235" fill="#ddaf89" rx="30" ry="45"/></g><g><path d="m406 235c0-16.653 6.036-31.183 15-38.965-4.414-3.831-9.534-6.035-15-6.035-16.568 0-30 20.147-30 45s13.432 45 30 45c5.466 0 10.586-2.204 15-6.035-8.964-7.782-15-22.312-15-38.965z" fill="#c9a07d"/></g><g><ellipse cx="106" cy="235" fill="#ddaf89" rx="30" ry="45"/></g><g><path d="m106 235c0-16.653 6.036-31.183 15-38.965-4.414-3.831-9.534-6.035-15-6.035-16.568 0-30 20.147-30 45s13.432 45 30 45c5.466 0 10.586-2.204 15-6.035-8.964-7.782-15-22.312-15-38.965z" fill="#c9a07d"/></g><g><g><g><ellipse cx="175.972" cy="362.073" fill="#fff" rx="23.515" ry="29.529" transform="matrix(.002 -1 1 .002 -186.486 537.252)"/></g><g><ellipse cx="336.028" cy="362.424" fill="#fff" rx="23.515" ry="29.529" transform="matrix(.002 -1 1 .002 -27.13 697.658)"/></g></g><g><path d="m193.465 352.058c-4.143 0-7.5-3.358-7.5-7.5v-12c0-4.142 3.357-7.5 7.5-7.5s7.5 3.358 7.5 7.5v12c0 4.142-3.358 7.5-7.5 7.5z"/></g><g><path d="m318.362 352.058c-4.143 0-7.5-3.358-7.5-7.5v-12c0-4.142 3.357-7.5 7.5-7.5s7.5 3.358 7.5 7.5v12c0 4.142-3.357 7.5-7.5 7.5z"/></g><path d="m285.007 344.213c-4.143 0-7.5 3.358-7.5 7.5 0 3.835-3.12 6.956-6.955 6.956-3.836 0-6.956-3.12-6.956-6.956 0-4.142-3.357-7.5-7.5-7.5s-7.5 3.358-7.5 7.5c0 3.835-3.12 6.956-6.955 6.956-3.836 0-6.956-3.12-6.956-6.956 0-4.142-3.357-7.5-7.5-7.5s-7.5 3.358-7.5 7.5c0 12.106 9.85 21.956 21.956 21.956 5.533 0 10.59-2.062 14.455-5.451 3.865 3.39 8.923 5.451 14.456 5.451 12.106 0 21.955-9.849 21.955-21.956 0-4.142-3.358-7.5-7.5-7.5z"/></g><g><path d="m448.555 312.721c21.882-16.867 34.945-45.922 34.945-77.721 0-43.165-24.272-80.154-59.026-89.951-5.412-1.525-9.094-6.913-8.754-12.812.187-3.24.28-6.517.28-9.738 0-28.518-7.085-56.031-19.949-77.472-17.17-28.615-43.613-45.027-72.551-45.027-21.411 0-42.126 9.332-58.328 26.275-2.43 2.541-5.682 3.939-9.159 3.939h-.012c-3.472-.003-6.715-1.402-9.132-3.939-16.146-16.943-36.875-26.275-58.369-26.275-28.938 0-55.381 16.412-72.55 45.028-12.865 21.441-19.95 48.954-19.95 77.472 0 3.221.094 6.498.28 9.74.34 5.897-3.342 11.284-8.754 12.81-34.754 9.796-59.026 46.785-59.026 89.95 0 31.799 13.063 60.854 34.946 77.722 4.525 3.488 6.123 9.54 3.884 14.717-5.859 13.547-8.83 27.867-8.83 42.561 0 41.783 24.572 80.119 62.6 97.666 4.496 2.074 7.4 6.551 7.4 11.406v5.428c0 15.164 12.336 27.5 27.5 27.5h200c15.164 0 27.5-12.336 27.5-27.5v-5.428c0-4.855 2.904-9.332 7.4-11.406 38.027-17.546 62.6-55.882 62.6-97.666 0-14.694-2.971-29.014-8.83-42.561-2.238-5.177-.642-11.229 3.885-14.718zm-9.159-11.88c-9.967 7.682-13.46 21.068-8.494 32.551 5.041 11.657 7.598 23.973 7.598 36.607 0 35.952-21.15 68.942-53.885 84.045-9.789 4.517-16.115 14.34-16.115 25.026v5.428c0 6.893-5.607 12.5-12.5 12.5h-200c-6.893 0-12.5-5.607-12.5-12.5v-5.428c0-10.686-6.326-20.509-16.115-25.026-32.735-15.102-53.885-48.092-53.885-84.044 0-12.634 2.557-24.951 7.598-36.607 4.967-11.483 1.474-24.869-8.494-32.551-18.224-14.049-29.104-38.662-29.104-65.842 0-36.479 19.778-67.531 48.097-75.513 12.132-3.42 20.399-15.242 19.658-28.107-.169-2.956-.255-5.943-.255-8.879 0-25.839 6.326-50.611 17.813-69.754 14.392-23.989 36.147-37.747 59.687-37.747 17.602 0 34.03 7.478 47.51 21.623 5.271 5.534 12.367 8.585 19.978 8.592h.025c7.611 0 14.714-3.044 20.001-8.573 13.344-13.956 30.209-21.642 47.486-21.642 23.54 0 45.295 13.758 59.688 37.746 11.486 19.143 17.812 43.915 17.812 69.754 0 2.937-.086 5.924-.255 8.877-.741 12.867 7.526 24.689 19.658 28.109 28.319 7.983 48.097 39.035 48.097 75.514 0 27.18-10.88 51.793-29.104 65.841z"/><path d="m379.479 311.376c-14.681-8.4-26.314-22-33.645-39.33-15.299-36.173-50.562-59.546-89.834-59.546s-74.535 23.373-89.836 59.547c-1.679 3.971-3.629 7.82-5.796 11.44-2.127 3.554-.971 8.16 2.583 10.287s8.16.972 10.288-2.583c2.523-4.216 4.791-8.691 6.74-13.301 12.948-30.61 42.787-50.39 76.021-50.39s63.072 19.779 76.021 50.389c8.619 20.38 22.454 36.461 40.01 46.506 16.327 9.342 26.47 26.817 26.47 45.604 0 28.949-23.552 52.5-52.5 52.5h-180.001c-28.948 0-52.5-23.551-52.5-52.5 0-18.788 10.143-36.263 26.47-45.604 4.431-2.535 8.689-5.507 12.657-8.833 3.175-2.661 3.592-7.391.931-10.565-2.66-3.174-7.391-3.591-10.565-.931-3.289 2.756-6.812 5.215-10.472 7.31-20.985 12.007-34.021 34.47-34.021 58.624 0 37.22 30.28 67.5 67.5 67.5h180c37.22 0 67.5-30.28 67.5-67.5 0-24.154-13.036-46.617-34.021-58.624z"/><path d="m188.5 205c29.439 0 52.5-36.238 52.5-82.5s-23.061-82.5-52.5-82.5-52.5 36.238-52.5 82.5 23.061 82.5 52.5 82.5zm0-150c20.327 0 37.5 30.911 37.5 67.5s-17.173 67.5-37.5 67.5-37.5-30.911-37.5-67.5 17.173-67.5 37.5-67.5z"/><path d="m278.494 114.945c4.097.5 7.85-2.426 8.352-6.538 3.707-30.447 19.466-53.407 36.654-53.407 20.327 0 37.5 30.911 37.5 67.5s-17.173 67.5-37.5 67.5c-17.158 0-32.911-22.914-36.642-53.299-.505-4.111-4.235-7.035-8.358-6.53-4.111.504-7.035 4.247-6.53 8.358 4.805 39.137 25.995 66.471 51.53 66.471 29.439 0 52.5-36.238 52.5-82.5s-23.061-82.5-52.5-82.5c-25.574 0-46.77 27.384-51.545 66.593-.5 4.112 2.427 7.851 6.539 8.352z"/><path d="m406 182.5c-21.028 0-37.5 23.061-37.5 52.5s16.472 52.5 37.5 52.5 37.5-23.061 37.5-52.5-16.472-52.5-37.5-52.5zm0 90c-12.196 0-22.5-17.173-22.5-37.5s10.304-37.5 22.5-37.5 22.5 17.173 22.5 37.5-10.304 37.5-22.5 37.5z"/><path d="m143.5 235c0-29.439-16.472-52.5-37.5-52.5s-37.5 23.061-37.5 52.5 16.472 52.5 37.5 52.5 37.5-23.061 37.5-52.5zm-60 0c0-20.327 10.304-37.5 22.5-37.5s22.5 17.173 22.5 37.5-10.304 37.5-22.5 37.5-22.5-17.173-22.5-37.5z"/></g></g></svg>